<svg width="512" height="512" version="1.1" xmlns="http://www.w3.org/2000/svg" desc="Created with imagetracer.js version 1.2.6" ><path fill="rgb(0,0,0)" stroke="rgb(0,0,0)" stroke-width="1" opacity="0.8627450980392157" d="M 245.5 60 L 267 60.5 L 245.5 61 L 245.5 60 Z " /><path fill="rgb(0,0,0)" stroke="rgb(0,0,0)" stroke-width="1" opacity="0.8627450980392157" d="M 233.5 61 L 238 61.5 L 233.5 62 L 233.5 61 Z " /><path fill="rgb(0,0,0)" stroke="rgb(0,0,0)" stroke-width="1" opacity="0.8627450980392157" d="M 274.5 61 L 279 61.5 L 274.5 62 L 274.5 61 Z " /><path fill="rgb(0,0,0)" stroke="rgb(0,0,0)" stroke-width="1" opacity="0.8627450980392157" d="M 226.5 62 L 229 62.5 L 226.5 63 L 226.5 62 Z " /><path fill="rgb(0,0,0)" stroke="rgb(0,0,0)" stroke-width="1" opacity="0.8627450980392157" d="M 283.5 62 L 286 62.5 L 283.5 63 L 283.5 62 Z " /><path fill="rgb(0,0,0)" stroke="rgb(0,0,0)" stroke-width="1" opacity="0.8627450980392157" d="M 220.5 63 L 223 63.5 L 220.5 64 L 220.5 63 Z " /><path fill="rgb(0,0,0)" stroke="rgb(0,0,0)" stroke-width="1" opacity="0.8627450980392157" d="M 289.5 63 L 292 63.5 L 289.5 64 L 289.5 63 Z " /><path fill="rgb(0,0,0)" stroke="rgb(0,0,0)" stroke-width="1" opacity="0.8627450980392157" d="M 210.5 65 L 213 65.5 L 210.5 66 L 210.5 65 Z " /><path fill="rgb(0,0,0)" stroke="rgb(0,0,0)" stroke-width="1" opacity="0.8627450980392157" d="M 163.5 83 L 162.5 85 L 163.5 83 Z " /><path fill="rgb(0,0,0)" stroke="rgb(0,0,0)" stroke-width="1" opacity="0.8627450980392157" d="M 348.5 83 L 352 85.5 L 350.5 85 L 348.5 83 Z " /><path fill="rgb(0,0,0)" stroke="rgb(0,0,0)" stroke-width="1" opacity="0.8627450980392157" d="M 156.5 87 L 155.5 89 L 156.5 87 Z " /><path fill="rgb(0,0,0)" stroke="rgb(0,0,0)" stroke-width="1" opacity="0.8627450980392157" d="M 355.5 87 L 359 89.5 L 357.5 89 L 355.5 87 Z " /><path fill="rgb(0,0,0)" stroke="rgb(0,0,0)" stroke-width="1" opacity="0.8627450980392157" d="M 151.5 90 L 150.5 92 L 151.5 90 Z " /><path fill="rgb(0,0,0)" stroke="rgb(0,0,0)" stroke-width="1" opacity="0.8627450980392157" d="M 360.5 90 L 361.5 92 L 360.5 90 Z " /><path fill="rgb(0,0,0)" stroke="rgb(0,0,0)" stroke-width="1" opacity="0.8627450980392157" d="M 148.5 92 L 147.5 94 L 148.5 92 Z " /><path fill="rgb(0,0,0)" stroke="rgb(0,0,0)" stroke-width="1" opacity="0.8627450980392157" d="M 363.5 92 L 364.5 94 L 363.5 92 Z " /><path fill="rgb(0,0,0)" stroke="rgb(0,0,0)" stroke-width="1" opacity="0.8627450980392157" d="M 145.5 94 L 144.5 96 L 145.5 94 Z " /><path fill="rgb(0,0,0)" stroke="rgb(0,0,0)" stroke-width="1" opacity="0.8627450980392157" d="M 366.5 94 L 367.5 96 L 366.5 94 Z " /><path fill="rgb(0,0,0)" stroke="rgb(0,0,0)" stroke-width="1" opacity="0.8627450980392157" d="M 142.5 96 L 140.5 99 L 142.5 96 Z " /><path fill="rgb(0,0,0)" stroke="rgb(0,0,0)" stroke-width="1" opacity="0.8627450980392157" d="M 369.5 96 L 371.5 99 L 369.5 96 Z " /><path fill="rgb(0,0,0)" stroke="rgb(0,0,0)" stroke-width="1" opacity="0.8627450980392157" d="M 138.5 99 L 137.5 101 L 138.5 99 Z " /><path fill="rgb(0,0,0)" stroke="rgb(0,0,0)" stroke-width="1" opacity="0.8627450980392157" d="M 373.5 99 L 374.5 101 L 373.5 99 Z " /><path fill="rgb(0,0,0)" stroke="rgb(0,0,0)" stroke-width="1" opacity="0.8627450980392157" d="M 134.5 102 L 131.5 106 L 134.5 102 Z " /><path fill="rgb(0,0,0)" stroke="rgb(0,0,0)" stroke-width="1" opacity="0.8627450980392157" d="M 377.5 102 L 380.5 106 L 377.5 102 Z " /><path fill="rgb(0,0,0)" stroke="rgb(0,0,0)" stroke-width="1" opacity="0.8627450980392157" d="M 128.5 107 L 123.5 113 L 128.5 107 Z " /><path fill="rgb(0,0,0)" stroke="rgb(0,0,0)" stroke-width="1" opacity="0.8627450980392157" d="M 383.5 107 L 388.5 113 L 383.5 107 Z " /><path fill="rgb(0,0,0)" stroke="rgb(0,0,0)" stroke-width="1" opacity="0.8627450980392157" d="M 112.5 123 L 107.5 129 L 112.5 123 Z " /><path fill="rgb(0,0,0)" stroke="rgb(0,0,0)" stroke-width="1" opacity="0.8627450980392157" d="M 399.5 123 L 404.5 129 L 399.5 123 Z " /><path fill="rgb(0,0,0)" stroke="rgb(0,0,0)" stroke-width="1" opacity="0.8627450980392157" d="M 105.5 131 L 102.5 135 L 105.5 131 Z " /><path fill="rgb(0,0,0)" stroke="rgb(0,0,0)" stroke-width="1" opacity="0.8627450980392157" d="M 406.5 131 L 409.5 135 L 406.5 131 Z " /><path fill="rgb(0,0,0)" stroke="rgb(0,0,0)" stroke-width="1" opacity="0.8627450980392157" d="M 101.5 136 L 99.5 139 L 101.5 136 Z " /><path fill="rgb(0,0,0)" stroke="rgb(0,0,0)" stroke-width="1" opacity="0.8627450980392157" d="M 410.5 136 L 412.5 139 L 410.5 136 Z " /><path fill="rgb(0,0,0)" stroke="rgb(0,0,0)" stroke-width="1" opacity="0.8627450980392157" d="M 97.5 141 L 96.5 143 L 97.5 141 Z " /><path fill="rgb(0,0,0)" stroke="rgb(0,0,0)" stroke-width="1" opacity="0.8627450980392157" d="M 414.5 141 L 415.5 143 L 414.5 141 Z " /><path fill="rgb(0,0,0)" stroke="rgb(0,0,0)" stroke-width="1" opacity="0.8627450980392157" d="M 95.5 144 L 94.5 146 L 95.5 144 Z " /><path fill="rgb(0,0,0)" stroke="rgb(0,0,0)" stroke-width="1" opacity="0.8627450980392157" d="M 416.5 144 L 417.5 146 L 416.5 144 Z " /><path fill="rgb(0,0,0)" stroke="rgb(0,0,0)" stroke-width="1" opacity="0.8627450980392157" d="M 93.5 147 L 92.5 149 L 93.5 147 Z " /><path fill="rgb(0,0,0)" stroke="rgb(0,0,0)" stroke-width="1" opacity="0.8627450980392157" d="M 418.5 147 L 419.5 149 L 418.5 147 Z " /><path fill="rgb(0,0,0)" stroke="rgb(0,0,0)" stroke-width="1" opacity="0.8627450980392157" d="M 91.5 150 L 90.5 152 L 91.5 150 Z " /><path fill="rgb(0,0,0)" stroke="rgb(0,0,0)" stroke-width="1" opacity="0.8627450980392157" d="M 420.5 150 L 421.5 152 L 420.5 150 Z " /><path fill="rgb(0,0,0)" stroke="rgb(0,0,0)" stroke-width="1" opacity="0.8627450980392157" d="M 89.5 153 L 89 154.5 L 87.5 157 L 88 155.5 L 89.5 153 Z " /><path fill="rgb(0,0,0)" stroke="rgb(0,0,0)" stroke-width="1" opacity="0.8627450980392157" d="M 85.5 160 L 84.5 162 L 85.5 160 Z " /><path fill="rgb(0,0,0)" stroke="rgb(0,0,0)" stroke-width="1" opacity="0.8627450980392157" d="M 426.5 160 L 427.5 162 L 426.5 160 Z " /><path fill="rgb(0,0,0)" stroke="rgb(0,0,0)" stroke-width="1" opacity="0.8627450980392157" d="M 64.5 215 L 65 217.5 L 64 217.5 L 64.5 215 Z " /><path fill="rgb(0,0,0)" stroke="rgb(0,0,0)" stroke-width="1" opacity="0.8627450980392157" d="M 447.5 215 L 448 217.5 L 447 217.5 L 447.5 215 Z " /><path fill="rgb(0,0,0)" stroke="rgb(0,0,0)" stroke-width="1" opacity="0.8627450980392157" d="M 63.5 220 L 64 222.5 L 63 222.5 L 63.5 220 Z " /><path fill="rgb(0,0,0)" stroke="rgb(0,0,0)" stroke-width="1" opacity="0.8627450980392157" d="M 448.5 220 L 449 222.5 L 448 222.5 L 448.5 220 Z " /><path fill="rgb(0,0,0)" stroke="rgb(0,0,0)" stroke-width="1" opacity="0.8627450980392157" d="M 62.5 226 L 63 228.5 L 62 228.5 L 62.5 226 Z " /><path fill="rgb(0,0,0)" stroke="rgb(0,0,0)" stroke-width="1" opacity="0.8627450980392157" d="M 449.5 226 L 450 228.5 L 449 228.5 L 449.5 226 Z " /><path fill="rgb(0,0,0)" stroke="rgb(0,0,0)" stroke-width="1" opacity="0.8627450980392157" d="M 61.5 233 L 62 237.5 L 61 237.5 L 61.5 233 Z " /><path fill="rgb(0,0,0)" stroke="rgb(0,0,0)" stroke-width="1" opacity="0.8627450980392157" d="M 450.5 233 L 451 237.5 L 450 237.5 L 450.5 233 Z " /><path fill="rgb(0,0,0)" stroke="rgb(0,0,0)" stroke-width="1" opacity="0.8627450980392157" d="M 60.5 241 L 61 246.5 L 60 246.5 L 60.5 241 Z " /><path fill="rgb(0,0,0)" stroke="rgb(0,0,0)" stroke-width="1" opacity="0.8627450980392157" d="M 451.5 241 L 452 247.5 L 451 247.5 L 451.5 241 Z " /><path fill="rgb(0,0,0)" stroke="rgb(0,0,0)" stroke-width="1" opacity="0.8627450980392157" d="M 451.5 264 L 452 270.5 L 451 270.5 L 451.5 264 Z " /><path fill="rgb(0,0,0)" stroke="rgb(0,0,0)" stroke-width="1" opacity="0.8627450980392157" d="M 60.5 265 L 61 270.5 L 60 270.5 L 60.5 265 Z " /><path fill="rgb(0,0,0)" stroke="rgb(0,0,0)" stroke-width="1" opacity="0.8627450980392157" d="M 61.5 274 L 62 278.5 L 61 278.5 L 61.5 274 Z " /><path fill="rgb(0,0,0)" stroke="rgb(0,0,0)" stroke-width="1" opacity="0.8627450980392157" d="M 450.5 274 L 451 278.5 L 450 278.5 L 450.5 274 Z " /><path fill="rgb(0,0,0)" stroke="rgb(0,0,0)" stroke-width="1" opacity="0.8627450980392157" d="M 62.5 283 L 63 285.5 L 62 285.5 L 62.5 283 Z " /><path fill="rgb(0,0,0)" stroke="rgb(0,0,0)" stroke-width="1" opacity="0.8627450980392157" d="M 449.5 283 L 450 285.5 L 449 285.5 L 449.5 283 Z " /><path fill="rgb(0,0,0)" stroke="rgb(0,0,0)" stroke-width="1" opacity="0.8627450980392157" d="M 63.5 289 L 64 291.5 L 63 291.5 L 63.5 289 Z " /><path fill="rgb(0,0,0)" stroke="rgb(0,0,0)" stroke-width="1" opacity="0.8627450980392157" d="M 448.5 289 L 449 291.5 L 448 291.5 L 448.5 289 Z " /><path fill="rgb(0,0,0)" stroke="rgb(0,0,0)" stroke-width="1" opacity="0.8627450980392157" d="M 64.5 294 L 65 296.5 L 64 296.5 L 64.5 294 Z " /><path fill="rgb(0,0,0)" stroke="rgb(0,0,0)" stroke-width="1" opacity="0.8627450980392157" d="M 447.5 294 L 448 296.5 L 447 296.5 L 447.5 294 Z " /><path fill="rgb(0,0,0)" stroke="rgb(0,0,0)" stroke-width="1" opacity="0.8627450980392157" d="M 84.5 350 L 85.5 352 L 84.5 350 Z " /><path fill="rgb(0,0,0)" stroke="rgb(0,0,0)" stroke-width="1" opacity="0.8627450980392157" d="M 427.5 350 L 426.5 352 L 427.5 350 Z " /><path fill="rgb(0,0,0)" stroke="rgb(0,0,0)" stroke-width="1" opacity="0.8627450980392157" d="M 87.5 355 L 88.5 357 L 87.5 355 Z " /><path fill="rgb(0,0,0)" stroke="rgb(0,0,0)" stroke-width="1" opacity="0.8627450980392157" d="M 424.5 355 L 423.5 357 L 424.5 355 Z " /><path fill="rgb(0,0,0)" stroke="rgb(0,0,0)" stroke-width="1" opacity="0.8627450980392157" d="M 90.5 360 L 91.5 362 L 90.5 360 Z " /><path fill="rgb(0,0,0)" stroke="rgb(0,0,0)" stroke-width="1" opacity="0.8627450980392157" d="M 421.5 360 L 420.5 362 L 421.5 360 Z " /><path fill="rgb(0,0,0)" stroke="rgb(0,0,0)" stroke-width="1" opacity="0.8627450980392157" d="M 92.5 363 L 93.5 365 L 92.5 363 Z " /><path fill="rgb(0,0,0)" stroke="rgb(0,0,0)" stroke-width="1" opacity="0.8627450980392157" d="M 419.5 363 L 418.5 365 L 419.5 363 Z " /><path fill="rgb(0,0,0)" stroke="rgb(0,0,0)" stroke-width="1" opacity="0.8627450980392157" d="M 94.5 366 L 95.5 368 L 94.5 366 Z " /><path fill="rgb(0,0,0)" stroke="rgb(0,0,0)" stroke-width="1" opacity="0.8627450980392157" d="M 417.5 366 L 416.5 368 L 417.5 366 Z " /><path fill="rgb(0,0,0)" stroke="rgb(0,0,0)" stroke-width="1" opacity="0.8627450980392157" d="M 96.5 369 L 98.5 372 L 96.5 369 Z " /><path fill="rgb(0,0,0)" stroke="rgb(0,0,0)" stroke-width="1" opacity="0.8627450980392157" d="M 415.5 369 L 414.5 371 L 415.5 369 Z " /><path fill="rgb(0,0,0)" stroke="rgb(0,0,0)" stroke-width="1" opacity="0.8627450980392157" d="M 99.5 373 L 101.5 376 L 99.5 373 Z " /><path fill="rgb(0,0,0)" stroke="rgb(0,0,0)" stroke-width="1" opacity="0.8627450980392157" d="M 412.5 373 L 410.5 376 L 412.5 373 Z " /><path fill="rgb(0,0,0)" stroke="rgb(0,0,0)" stroke-width="1" opacity="0.8627450980392157" d="M 102.5 377 L 105.5 381 L 102.5 377 Z " /><path fill="rgb(0,0,0)" stroke="rgb(0,0,0)" stroke-width="1" opacity="0.8627450980392157" d="M 409.5 377 L 406.5 381 L 409.5 377 Z " /><path fill="rgb(0,0,0)" stroke="rgb(0,0,0)" stroke-width="1" opacity="0.8627450980392157" d="M 107.5 383 L 113.5 390 L 107.5 383 Z " /><path fill="rgb(0,0,0)" stroke="rgb(0,0,0)" stroke-width="1" opacity="0.8627450980392157" d="M 404.5 383 L 399.5 389 L 404.5 383 Z " /><path fill="rgb(0,0,0)" stroke="rgb(0,0,0)" stroke-width="1" opacity="0.8627450980392157" d="M 123.5 399 L 128.5 405 L 123.5 399 Z " /><path fill="rgb(0,0,0)" stroke="rgb(0,0,0)" stroke-width="1" opacity="0.8627450980392157" d="M 388.5 399 L 383.5 405 L 388.5 399 Z " /><path fill="rgb(0,0,0)" stroke="rgb(0,0,0)" stroke-width="1" opacity="0.8627450980392157" d="M 131.5 406 L 133.5 409 L 131.5 406 Z " /><path fill="rgb(0,0,0)" stroke="rgb(0,0,0)" stroke-width="1" opacity="0.8627450980392157" d="M 380.5 406 L 377.5 410 L 380.5 406 Z " /><path fill="rgb(0,0,0)" stroke="rgb(0,0,0)" stroke-width="1" opacity="0.8627450980392157" d="M 375.5 410 L 373.5 413 L 375.5 410 Z " /><path fill="rgb(0,0,0)" stroke="rgb(0,0,0)" stroke-width="1" opacity="0.8627450980392157" d="M 137.5 411 L 138.5 413 L 137.5 411 Z " /><path fill="rgb(0,0,0)" stroke="rgb(0,0,0)" stroke-width="1" opacity="0.8627450980392157" d="M 140.5 413 L 142.5 416 L 140.5 413 Z " /><path fill="rgb(0,0,0)" stroke="rgb(0,0,0)" stroke-width="1" opacity="0.8627450980392157" d="M 371.5 413 L 369.5 416 L 371.5 413 Z " /><path fill="rgb(0,0,0)" stroke="rgb(0,0,0)" stroke-width="1" opacity="0.8627450980392157" d="M 144.5 416 L 145.5 418 L 144.5 416 Z " /><path fill="rgb(0,0,0)" stroke="rgb(0,0,0)" stroke-width="1" opacity="0.8627450980392157" d="M 367.5 416 L 366.5 418 L 367.5 416 Z " /><path fill="rgb(0,0,0)" stroke="rgb(0,0,0)" stroke-width="1" opacity="0.8627450980392157" d="M 147.5 418 L 148.5 420 L 147.5 418 Z " /><path fill="rgb(0,0,0)" stroke="rgb(0,0,0)" stroke-width="1" opacity="0.8627450980392157" d="M 364.5 418 L 363.5 420 L 364.5 418 Z " /><path fill="rgb(0,0,0)" stroke="rgb(0,0,0)" stroke-width="1" opacity="0.8627450980392157" d="M 150.5 420 L 151.5 422 L 150.5 420 Z " /><path fill="rgb(0,0,0)" stroke="rgb(0,0,0)" stroke-width="1" opacity="0.8627450980392157" d="M 361.5 420 L 360.5 422 L 361.5 420 Z " /><path fill="rgb(0,0,0)" stroke="rgb(0,0,0)" stroke-width="1" opacity="0.8627450980392157" d="M 155.5 423 L 156.5 425 L 155.5 423 Z " /><path fill="rgb(0,0,0)" stroke="rgb(0,0,0)" stroke-width="1" opacity="0.8627450980392157" d="M 356.5 423 L 355.5 425 L 356.5 423 Z " /><path fill="rgb(0,0,0)" stroke="rgb(0,0,0)" stroke-width="1" opacity="0.8627450980392157" d="M 351.5 426 L 350.5 428 L 348.5 429 L 349.5 427 L 351.5 426 Z " /><path fill="rgb(0,0,0)" stroke="rgb(0,0,0)" stroke-width="1" opacity="0.8627450980392157" d="M 162.5 427 L 163.5 429 L 162.5 427 Z " /><path fill="rgb(0,0,0)" stroke="rgb(0,0,0)" stroke-width="1" opacity="0.8627450980392157" d="M 215.5 447 L 218 447.5 L 215.5 448 L 215.5 447 Z " /><path fill="rgb(0,0,0)" stroke="rgb(0,0,0)" stroke-width="1" opacity="0.8627450980392157" d="M 220.5 448 L 223 448.5 L 220.5 449 L 220.5 448 Z " /><path fill="rgb(0,0,0)" stroke="rgb(0,0,0)" stroke-width="1" opacity="0.8627450980392157" d="M 289.5 448 L 292 448.5 L 289.5 449 L 289.5 448 Z " /><path fill="rgb(0,0,0)" stroke="rgb(0,0,0)" stroke-width="1" opacity="0.8627450980392157" d="M 226.5 449 L 229 449.5 L 226.5 450 L 226.5 449 Z " /><path fill="rgb(0,0,0)" stroke="rgb(0,0,0)" stroke-width="1" opacity="0.8627450980392157" d="M 283.5 449 L 286 449.5 L 283.5 450 L 283.5 449 Z " /><path fill="rgb(0,0,0)" stroke="rgb(0,0,0)" stroke-width="1" opacity="0.8627450980392157" d="M 233.5 450 L 238 450.5 L 233.5 451 L 233.5 450 Z " /><path fill="rgb(0,0,0)" stroke="rgb(0,0,0)" stroke-width="1" opacity="0.8627450980392157" d="M 274.5 450 L 279 450.5 L 274.5 451 L 274.5 450 Z " /><path fill="rgb(0,0,0)" stroke="rgb(0,0,0)" stroke-width="1" opacity="0.8627450980392157" d="M 245.5 451 L 267 451.5 L 245.5 452 L 245.5 451 Z " /><path fill="rgb(0,0,0)" stroke="rgb(0,0,0)" stroke-width="1" opacity="0" d="M 0 0 L 512 0 L 512 512 L 0 512 L 0 0 Z M 246 60 L 245 61 L 234 61 L 211 65 L 183 74 Q 152 87 129 107 Q 102 130 84 162 Q 74 179 68 200 L 61 234 L 61 241 L 62 241 L 451 241 L 448 216 L 438 183 Q 425 152 405 129 Q 377 96 337 77 L 313 68 L 292 63 L 280 62 L 279 61 L 268 61 L 267 60 L 246 60 Z M 15 241 L 15 271 L 61 271 L 60 265 L 60 248 L 61 247 Q 62 241 61 241 L 15 241 Z M 451 241 L 451 248 L 452 249 L 452 264 L 451 265 Q 450 271 452 271 L 497 271 L 497 241 L 451 241 Z M 61 271 L 64 297 L 74 330 Q 87 360 107 384 Q 135 416 176 435 L 200 444 L 216 448 L 233 450 L 234 451 L 245 451 L 246 452 L 267 452 L 268 451 L 286 450 L 322 441 Q 357 428 384 405 Q 410 382 428 351 L 443 316 L 448 297 L 450 280 L 451 279 L 451 272 L 451 271 L 61 271 Z " /><path fill="rgb(0,0,0)" stroke="rgb(0,0,0)" stroke-width="1" opacity="1" d="M 238.5 61 L 273.5 61 L 274.5 62 L 282.5 62 L 303.5 66 L 325.5 73 Q 369.4 90.6 399 122.5 Q 420.2 144.8 434 174.5 L 444 201.5 L 449 223.5 L 450 237.5 L 451 241 L 61.5 241 L 61 238.5 L 68 201.5 L 78 174.5 Q 94.9 138.4 122.5 113 Q 145 92 174.5 78 L 208.5 66 L 229.5 62 L 237.5 62 L 238.5 61 Z " /><path fill="rgb(0,0,0)" stroke="rgb(0,0,0)" stroke-width="1" opacity="1" d="M 15 241 L 60 241 L 60 271 L 15 271 L 15 241 Z " /><path fill="rgb(0,0,0)" stroke="rgb(0,0,0)" stroke-width="1" opacity="1" d="M 452 241 L 497 241 L 497 271 L 452 271 L 452 241 Z " /><path fill="rgb(0,0,0)" stroke="rgb(0,0,0)" stroke-width="1" opacity="1" d="M 61 271 L 450.5 271 L 451 273.5 L 444 310.5 L 434 337.5 Q 417.1 373.6 389.5 399 Q 362.7 424.2 325.5 439 L 310.5 444 L 282.5 450 L 274.5 450 L 273.5 451 L 238.5 451 L 201.5 444 L 174.5 434 Q 139.1 417.4 114 390.5 Q 92.3 367.7 78 337.5 L 68 310.5 L 63 288.5 L 62 274.5 L 61 271 Z " /></svg>